<svg width="25" height="24" viewBox="0 0 25 24" fill="none" xmlns="http://www.w3.org/2000/svg">
<path d="M24.1398 11.8109L13.7898 1.46625L13.0961 0.772501C12.938 0.615474 12.7243 0.527344 12.5014 0.527344C12.2786 0.527344 12.0649 0.615474 11.9068 0.772501L0.863057 11.8109C0.701087 11.9722 0.573079 12.1644 0.48659 12.376C0.400101 12.5876 0.356882 12.8144 0.359486 13.043C0.3702 13.9859 1.15502 14.7386 2.09788 14.7386H3.23627V23.4627H21.7666V14.7386H22.9291C23.3872 14.7386 23.8184 14.5591 24.1425 14.235C24.3021 14.0759 24.4286 13.8868 24.5145 13.6785C24.6005 13.4702 24.6443 13.2469 24.6434 13.0216C24.6434 12.5663 24.4639 12.135 24.1398 11.8109ZM14.0014 21.5341H11.0014V16.0698H14.0014V21.5341ZM19.8381 12.81V21.5341H15.7157V15.427C15.7157 14.835 15.2363 14.3555 14.6443 14.3555H10.3586C9.76663 14.3555 9.28716 14.835 9.28716 15.427V21.5341H5.16484V12.81H2.59341L12.5041 2.90732L13.1229 3.52607L22.4122 12.81H19.8381Z" fill="black" fill-opacity="0.85"/>
</svg>
