<svg width="40" height="40" viewBox="0 0 40 40" fill="none" xmlns="http://www.w3.org/2000/svg">
<path d="M0 20.0002C0 31.0402 8.96 40.0002 20 40.0002C31.04 40.0002 40 31.0402 40 20.0002C40 8.96024 31.04 0.000244141 20 0.000244141C8.96 0.000244141 0 8.96024 0 20.0002ZM36 20.0002C36 28.8402 28.84 36.0002 20 36.0002C11.16 36.0002 4 28.8402 4 20.0002C4 11.1602 11.16 4.00024 20 4.00024C28.84 4.00024 36 11.1602 36 20.0002ZM12 20.0002L20 12.0002L22.82 14.8202L19.66 18.0002H28V22.0002H19.66L22.84 25.1802L20 28.0002L12 20.0002Z" fill="#02C189"/>
</svg>
