<svg width="19" height="24" viewBox="0 0 19 24" fill="none" xmlns="http://www.w3.org/2000/svg">
<path d="M18.0713 0H0.928432C0.454325 0 0.0712891 0.383036 0.0712891 0.857143V23.1429C0.0712891 23.617 0.454325 24 0.928432 24H18.0713C18.5454 24 18.9284 23.617 18.9284 23.1429V0.857143C18.9284 0.383036 18.5454 0 18.0713 0ZM11.107 1.92857H13.6784V7.55089L12.4329 6.64286L11.107 7.59107V1.92857ZM16.9999 22.0714H1.99986V1.92857H9.49986V9.88125C9.49986 9.96964 9.52665 10.058 9.58022 10.1304C9.61274 10.1763 9.65405 10.2154 9.70177 10.2453C9.74948 10.2752 9.80265 10.2953 9.8582 10.3045C9.91375 10.3138 9.97058 10.3119 10.0254 10.299C10.0802 10.2861 10.1319 10.2625 10.1775 10.2295L12.4222 8.625L14.6025 10.2161C14.6749 10.2696 14.7633 10.2991 14.8543 10.2991C15.09 10.2991 15.2829 10.1062 15.2829 9.87054V1.92857H16.9972V22.0714H16.9999Z" fill="black" fill-opacity="0.85"/>
</svg>
