<svg width="23" height="24" viewBox="0 0 23 24" fill="none" xmlns="http://www.w3.org/2000/svg">
<path d="M22.5573 15.0496L20.8029 13.5496C20.8859 13.0406 20.9288 12.521 20.9288 12.0013C20.9288 11.4817 20.8859 10.9621 20.8029 10.4531L22.5573 8.95312C22.6897 8.83984 22.7844 8.68895 22.8289 8.52053C22.8734 8.35211 22.8656 8.17413 22.8065 8.01027L22.7823 7.94062C22.2993 6.5907 21.5761 5.33929 20.6475 4.24687L20.5993 4.19063C20.4867 4.05818 20.3365 3.96296 20.1687 3.91754C20.0009 3.87211 19.8232 3.87861 19.6591 3.93616L17.4815 4.71027C16.6779 4.05134 15.7806 3.5317 14.8109 3.16741L14.3904 0.890625C14.3587 0.719309 14.2755 0.561703 14.1521 0.438744C14.0287 0.315785 13.8707 0.233295 13.6993 0.202232L13.627 0.188839C12.2315 -0.0629464 10.7636 -0.0629464 9.36806 0.188839L9.29574 0.202232C9.1243 0.233295 8.96637 0.315785 8.84293 0.438744C8.7195 0.561703 8.63639 0.719309 8.60467 0.890625L8.18145 3.17813C7.21955 3.54249 6.32377 4.06185 5.52967 4.71562L3.33592 3.93616C3.1719 3.87815 2.9941 3.87142 2.82617 3.91687C2.65824 3.96233 2.50811 4.05781 2.39574 4.19063L2.34752 4.24687C1.42006 5.34006 0.696922 6.59126 0.212701 7.94062L0.188594 8.01027C0.0680578 8.34509 0.167165 8.72009 0.437701 8.95312L2.21359 10.4692C2.13056 10.9728 2.09038 11.4871 2.09038 11.9987C2.09038 12.5129 2.13056 13.0272 2.21359 13.5281L0.437701 15.0442C0.305368 15.1575 0.210656 15.3084 0.166158 15.4768C0.12166 15.6452 0.129485 15.8232 0.188594 15.9871L0.212701 16.0567C0.697522 17.4067 1.41538 18.6522 2.34752 19.7504L2.39574 19.8067C2.50838 19.9391 2.65851 20.0344 2.82635 20.0798C2.99418 20.1252 3.17184 20.1187 3.33592 20.0612L5.52967 19.2817C6.32788 19.9379 7.21984 20.4576 8.18145 20.8192L8.60467 23.1067C8.63639 23.278 8.7195 23.4356 8.84293 23.5586C8.96637 23.6815 9.1243 23.764 9.29574 23.7951L9.36806 23.8085C10.7764 24.0616 12.2186 24.0616 13.627 23.8085L13.6993 23.7951C13.8707 23.764 14.0287 23.6815 14.1521 23.5586C14.2755 23.4356 14.3587 23.278 14.3904 23.1067L14.8109 20.8299C15.7802 20.4666 16.6826 19.9452 17.4815 19.2871L19.6591 20.0612C19.8232 20.1192 20.0009 20.1259 20.1689 20.0804C20.3368 20.035 20.4869 19.9395 20.5993 19.8067L20.6475 19.7504C21.5797 18.6496 22.2975 17.4067 22.7823 16.0567L22.8065 15.9871C22.927 15.6576 22.8279 15.2826 22.5573 15.0496ZM18.9011 10.7692C18.9681 11.1737 19.0029 11.5888 19.0029 12.004C19.0029 12.4192 18.9681 12.8344 18.9011 13.2388L18.7243 14.3129L20.7252 16.0246C20.4219 16.7234 20.039 17.3849 19.5841 17.996L17.0984 17.1147L16.2573 17.8058C15.6172 18.3308 14.9047 18.7433 14.1332 19.0326L13.1127 19.4156L12.6332 22.0138C11.8767 22.0996 11.113 22.0996 10.3565 22.0138L9.87699 19.4103L8.86449 19.0219C8.10109 18.7326 7.39127 18.3201 6.75645 17.7978L5.91538 17.104L3.41359 17.9933C2.95824 17.3799 2.57788 16.7183 2.27252 16.0219L4.29484 14.2942L4.12074 13.2228C4.05645 12.8237 4.02163 12.4112 4.02163 12.004C4.02163 11.5942 4.05377 11.1844 4.12074 10.7853L4.29484 9.71384L2.27252 7.98616C2.5752 7.28705 2.95824 6.62812 3.41359 6.01473L5.91538 6.90402L6.75645 6.21027C7.39127 5.68795 8.10109 5.27545 8.86449 4.98616L9.87967 4.60312L10.3591 1.99955C11.1118 1.91384 11.8806 1.91384 12.6359 1.99955L13.1154 4.59777L14.1359 4.9808C14.9047 5.27009 15.6198 5.68259 16.26 6.20759L17.1011 6.89866L19.5868 6.01741C20.0422 6.6308 20.4225 7.29241 20.7279 7.98884L18.727 9.70045L18.9011 10.7692ZM11.5002 7.02187C8.89663 7.02187 6.78592 9.13259 6.78592 11.7362C6.78592 14.3397 8.89663 16.4504 11.5002 16.4504C14.1038 16.4504 16.2145 14.3397 16.2145 11.7362C16.2145 9.13259 14.1038 7.02187 11.5002 7.02187ZM13.6216 13.8576C13.3434 14.1366 13.0127 14.3579 12.6486 14.5087C12.2846 14.6595 11.8943 14.7368 11.5002 14.7362C10.6993 14.7362 9.94663 14.4228 9.37877 13.8576C9.09973 13.5793 8.87845 13.2487 8.72767 12.8846C8.57689 12.5205 8.49959 12.1302 8.5002 11.7362C8.5002 10.9353 8.81359 10.1826 9.37877 9.61473C9.94663 9.04688 10.6993 8.73616 11.5002 8.73616C12.3011 8.73616 13.0538 9.04688 13.6216 9.61473C13.9007 9.89298 14.122 10.2236 14.2727 10.5877C14.4235 10.9518 14.5008 11.3421 14.5002 11.7362C14.5002 12.5371 14.1868 13.2897 13.6216 13.8576Z" fill="black" fill-opacity="0.85"/>
</svg>
