<svg width="25" height="20" viewBox="0 0 25 20" fill="none" xmlns="http://www.w3.org/2000/svg">
<path d="M23.6429 0.56665H1.35714C0.883036 0.56665 0.5 0.949686 0.5 1.42379V18.5667C0.5 19.0408 0.883036 19.4238 1.35714 19.4238H23.6429C24.117 19.4238 24.5 19.0408 24.5 18.5667V1.42379C24.5 0.949686 24.117 0.56665 23.6429 0.56665ZM22.5714 6.13808H16.8929V2.49522H22.5714V6.13808ZM22.5714 12.1381H16.8929V7.85237H22.5714V12.1381ZM9.82143 7.85237H15.1786V12.1381H9.82143V7.85237ZM15.1786 6.13808H9.82143V2.49522H15.1786V6.13808ZM2.42857 7.85237H8.10714V12.1381H2.42857V7.85237ZM2.42857 2.49522H8.10714V6.13808H2.42857V2.49522ZM2.42857 13.8524H8.10714V17.4952H2.42857V13.8524ZM9.82143 13.8524H15.1786V17.4952H9.82143V13.8524ZM22.5714 17.4952H16.8929V13.8524H22.5714V17.4952Z" fill="black" fill-opacity="0.85"/>
</svg>
